<svg xmlns="http://www.w3.org/2000/svg" xmlns:svg="http://www.w3.org/2000/svg" xmlns:xlink="http://www.w3.org/1999/xlink" id="svg249" width="48" height="48" version="1.1"><defs id="defs3"><linearGradient id="linearGradient5048"><stop style="stop-color:black;stop-opacity:0" id="stop5050" offset="0"/><stop id="stop5056" offset=".5" style="stop-color:black;stop-opacity:1"/><stop style="stop-color:black;stop-opacity:0" id="stop5052" offset="1"/></linearGradient><linearGradient id="linearGradient2616"><stop style="stop-color:#000;stop-opacity:1" id="stop2618" offset="0"/><stop style="stop-color:#000;stop-opacity:0" id="stop2620" offset="1"/></linearGradient><linearGradient id="linearGradient4542"><stop style="stop-color:#000;stop-opacity:1" id="stop4544" offset="0"/><stop style="stop-color:#000;stop-opacity:0" id="stop4546" offset="1"/></linearGradient><linearGradient id="linearGradient15662"><stop id="stop15664" offset="0" style="stop-color:#fff;stop-opacity:1"/><stop id="stop15666" offset="1" style="stop-color:#f8f8f8;stop-opacity:1"/></linearGradient><radialGradient id="aigrd3" cx="20.892" cy="64.568" r="5.257" fx="20.892" fy="64.568" gradientUnits="userSpaceOnUse"><stop style="stop-color:#f0f0f0" id="stop15573" offset="0"/><stop style="stop-color:#9a9a9a;stop-opacity:1" id="stop15575" offset="1"/></radialGradient><radialGradient id="aigrd2" cx="20.892" cy="114.568" r="5.256" fx="20.892" fy="114.568" gradientUnits="userSpaceOnUse"><stop style="stop-color:#f0f0f0" id="stop15566" offset="0"/><stop style="stop-color:#9a9a9a;stop-opacity:1" id="stop15568" offset="1"/></radialGradient><linearGradient id="linearGradient269"><stop id="stop270" offset="0" style="stop-color:#a3a3a3;stop-opacity:1"/><stop id="stop271" offset="1" style="stop-color:#4c4c4c;stop-opacity:1"/></linearGradient><linearGradient id="linearGradient259"><stop id="stop260" offset="0" style="stop-color:#fafafa;stop-opacity:1"/><stop id="stop261" offset="1" style="stop-color:#bbb;stop-opacity:1"/></linearGradient><radialGradient id="radialGradient15656" cx="8.824" cy="3.756" r="37.752" fx="8.824" fy="3.756" gradientTransform="matrix(0.968273,0,0,1.032767,3.7071064,-0.94454327)" gradientUnits="userSpaceOnUse" xlink:href="#linearGradient269"/><radialGradient id="radialGradient15658" cx="33.967" cy="35.737" r="86.708" fx="33.967" fy="35.737" gradientTransform="matrix(0.960493,0,0,1.041132,0.35355339,-1.5909903)" gradientUnits="userSpaceOnUse" xlink:href="#linearGradient259"/><radialGradient id="radialGradient15668" cx="8.144" cy="7.268" r="38.159" fx="8.144" fy="7.268" gradientTransform="matrix(0.968273,0,0,1.032767,3.7071064,-0.94454327)" gradientUnits="userSpaceOnUse" xlink:href="#linearGradient15662"/><radialGradient id="radialGradient2283" cx="20.892" cy="114.568" r="5.256" fx="20.892" fy="114.568" gradientTransform="matrix(0.229703,0,0,0.229703,4.613529,3.979808)" gradientUnits="userSpaceOnUse" xlink:href="#aigrd2"/><radialGradient id="radialGradient2285" cx="20.892" cy="64.568" r="5.257" fx="20.892" fy="64.568" gradientTransform="matrix(0.229703,0,0,0.229703,4.613529,3.979808)" gradientUnits="userSpaceOnUse" xlink:href="#aigrd3"/><radialGradient id="radialGradient4548" cx="24.307" cy="42.078" r="15.822" fx="24.307" fy="42.078" gradientTransform="matrix(1.000000,0.000000,0.000000,0.284916,0.000000,30.08928)" gradientUnits="userSpaceOnUse" xlink:href="#linearGradient4542"/><radialGradient id="radialGradient2622" cx="26.03" cy="24.227" r="11.63" fx="26.03" fy="24.227" gradientTransform="matrix(1.870331,0,0,2.3825139,-23.385243,-36.473714)" gradientUnits="userSpaceOnUse" xlink:href="#linearGradient2616"/><linearGradient id="linearGradient6625"><stop id="stop6627" offset="0" style="stop-color:#1d2349;stop-opacity:1"/><stop style="stop-color:#4c5279;stop-opacity:1" id="stop6637" offset=".353"/><stop style="stop-color:#b3bdff;stop-opacity:1" id="stop6633" offset=".466"/><stop id="stop6635" offset=".65" style="stop-color:#727cbe;stop-opacity:1"/><stop id="stop6629" offset="1" style="stop-color:#323c7e;stop-opacity:1"/></linearGradient><linearGradient id="linearGradient6684"><stop id="stop6686" offset="0" style="stop-color:#d5dbff;stop-opacity:1"/><stop id="stop6688" offset="1" style="stop-color:#6579ff;stop-opacity:0"/></linearGradient><radialGradient id="aigrd1" cx="28.789" cy="20.971" r="13.281" fx="28.789" fy="20.971" gradientUnits="userSpaceOnUse"><stop id="stop5115" offset="0" style="stop-color:#e41e08"/><stop id="stop5117" offset="1" style="stop-color:#901505"/></radialGradient><radialGradient id="aigrd2-5" cx="19.292" cy="13.544" r="14.694" fx="19.292" fy="13.544" gradientUnits="userSpaceOnUse"><stop id="stop5122" offset="0" style="stop-color:#e41e08"/><stop id="stop5124" offset="1" style="stop-color:#901505"/></radialGradient><linearGradient id="linearGradient6604"><stop id="stop6606" offset="0" style="stop-color:#ffa196;stop-opacity:1"/><stop id="stop6608" offset="1" style="stop-color:#ff1f06;stop-opacity:0"/></linearGradient><linearGradient id="linearGradient6617"><stop id="stop6619" offset="0" style="stop-color:#fff;stop-opacity:.24742268"/><stop id="stop6621" offset="1" style="stop-color:#fff;stop-opacity:0"/></linearGradient><radialGradient id="radialGradient6675" cx="24.452" cy="19.819" r="33.156" fx="24.452" fy="19.819" gradientTransform="matrix(1.024478,0,0,0.976107,1.646447,-0.353552)" gradientUnits="userSpaceOnUse" xlink:href="#linearGradient2616"/><radialGradient id="radialGradient6663" cx="24.452" cy="19.819" r="33.156" fx="24.452" fy="19.819" gradientTransform="matrix(1.024478,0,0,0.976107,0.939339,-0.530329)" gradientUnits="userSpaceOnUse" xlink:href="#linearGradient2616"/><linearGradient id="linearGradient6631" x1="38.506" x2="38.251" y1="22.886" y2="35.018" gradientTransform="matrix(0.843938,0,0,1.184922,-1.28033,1.68934)" gradientUnits="userSpaceOnUse" xlink:href="#linearGradient6625"/><linearGradient id="linearGradient6690" x1="37.503" x2="36.499" y1="35.458" y2="27.404" gradientTransform="scale(0.843938,1.184922)" gradientUnits="userSpaceOnUse" xlink:href="#linearGradient6684"/><radialGradient id="radialGradient5284" cx="28.789" cy="20.971" r="13.281" fx="28.789" fy="20.971" gradientTransform="matrix(1.310386,0,0,1.310386,-8.642682,-4.375977)" gradientUnits="userSpaceOnUse" xlink:href="#aigrd1-1"/><radialGradient id="aigrd1-1" cx="28.789" cy="20.971" r="13.281" fx="28.789" fy="20.971" gradientUnits="userSpaceOnUse"><stop id="stop5115-8" offset="0" style="stop-color:#e41e08"/><stop id="stop5117-3" offset="1" style="stop-color:#901505"/></radialGradient><radialGradient id="radialGradient6678" cx="26.887" cy="20.479" r="14.694" fx="26.887" fy="20.479" gradientTransform="matrix(1.135551,0,0,1.135551,-4.540325,-2.077433)" gradientUnits="userSpaceOnUse" xlink:href="#aigrd2-5-4"/><radialGradient id="aigrd2-5-4" cx="19.292" cy="13.544" r="14.694" fx="19.292" fy="13.544" gradientUnits="userSpaceOnUse"><stop id="stop5122-0" offset="0" style="stop-color:#e41e08"/><stop id="stop5124-6" offset="1" style="stop-color:#901505"/></radialGradient><linearGradient id="linearGradient6610" x1="15.339" x2="43.141" y1="5.924" y2="49.895" gradientTransform="matrix(0.975728,0,0,0.931033,-0.132002,1.978392)" gradientUnits="userSpaceOnUse" xlink:href="#linearGradient6604"/><linearGradient id="linearGradient6623" x1="18.57" x2="29.957" y1="9.444" y2="22.783" gradientTransform="matrix(1.02867,0,0,0.972129,-1.28033,1.18934)" gradientUnits="userSpaceOnUse" xlink:href="#linearGradient6617"/></defs><metadata id="metadata4"/><g style="display:inline" id="layer1"><rect style="color:#000;display:block;overflow:visible;visibility:visible;fill:url(#radialGradient15658);fill-opacity:1;fill-rule:nonzero;stroke:url(#radialGradient15656);stroke-width:1;stroke-linecap:round;stroke-linejoin:round;stroke-miterlimit:4;stroke-dashoffset:0;stroke-opacity:1;marker:none;marker-start:none;marker-mid:none;marker-end:none" id="rect15391" width="34.875" height="40.92" x="6.957" y="2.055" ry="1.149"/><rect style="color:#000;display:block;overflow:visible;visibility:visible;fill:none;fill-opacity:1;fill-rule:nonzero;stroke:url(#radialGradient15668);stroke-width:1;stroke-linecap:round;stroke-linejoin:round;stroke-miterlimit:4;stroke-dashoffset:0;stroke-opacity:1;marker:none;marker-start:none;marker-mid:none;marker-end:none" id="rect15660" width="32.776" height="38.946" x="8.02" y="2.993" rx=".149" ry=".149"/><g id="g2270" transform="translate(1.0000004,-1.6289796)"><g id="g1440" transform="matrix(0.229703,0,0,0.229703,4.967081,4.244972)" style="fill:#fff;fill-opacity:1;fill-rule:nonzero;stroke:#000;stroke-miterlimit:4"><radialGradient id="radialGradient1442" cx="20.892" cy="114.568" r="5.256" fx="20.892" fy="114.568" gradientUnits="userSpaceOnUse"><stop style="stop-color:#f0f0f0" id="stop1444" offset="0"/><stop style="stop-color:#474747" id="stop1446" offset="1"/></radialGradient><path style="stroke:none" id="path1448" d="m 23.428,113.07 c 0,1.973 -1.6,3.572 -3.573,3.572 -1.974,0 -3.573,-1.6 -3.573,-3.572 0,-1.974 1.6,-3.573 3.573,-3.573 1.973,0 3.573,1.6 3.573,3.573 z"/><radialGradient id="radialGradient1450" cx="20.892" cy="64.568" r="5.257" fx="20.892" fy="64.568" gradientUnits="userSpaceOnUse"><stop style="stop-color:#f0f0f0" id="stop1452" offset="0"/><stop style="stop-color:#474747" id="stop1454" offset="1"/></radialGradient><path style="stroke:none" id="path1456" d="m 23.428,63.07 c 0,1.973 -1.6,3.573 -3.573,3.573 -1.974,0 -3.573,-1.6 -3.573,-3.573 0,-1.974 1.6,-3.573 3.573,-3.573 1.973,0 3.573,1.6 3.573,3.573 z"/></g><path style="fill:url(#radialGradient2283);fill-rule:nonzero;stroke:none;stroke-miterlimit:4" id="path15570" d="m 9.9950109,29.952326 c 0,0.453204 -0.3675248,0.820499 -0.8207288,0.820499 -0.4534338,0 -0.8207289,-0.367524 -0.8207289,-0.820499 0,-0.453434 0.3675248,-0.820729 0.8207289,-0.820729 0.453204,0 0.8207288,0.367525 0.8207288,0.820729 z"/><path style="fill:url(#radialGradient2285);fill-rule:nonzero;stroke:none;stroke-miterlimit:4" id="path15577" d="m 9.9950109,18.467176 c 0,0.453204 -0.3675248,0.820729 -0.8207288,0.820729 -0.4534338,0 -0.8207289,-0.367525 -0.8207289,-0.820729 0,-0.453434 0.3675248,-0.820729 0.8207289,-0.820729 0.453204,0 0.8207288,0.367525 0.8207288,0.820729 z"/></g><path style="fill:none;fill-opacity:.75;fill-rule:evenodd;stroke:#000;stroke-width:.98855311;stroke-linecap:butt;stroke-linejoin:miter;stroke-miterlimit:4;stroke-opacity:.01754384" id="path15672" d="m 11.859276,3.9032863 0,37.9065927"/><path style="fill:none;fill-opacity:.75;fill-rule:evenodd;stroke:#fff;stroke-width:1;stroke-linecap:butt;stroke-linejoin:miter;stroke-miterlimit:4;stroke-opacity:.20467834" id="path15674" d="m 12.853553,3.4295251 0,38.0177129"/></g><g id="layer5" style="display:inline"><g id="g2253" transform="matrix(0.909091,0,0,1,2.7171814,-1.5909903)"><rect style="color:#000;display:block;overflow:visible;visibility:visible;fill:#9b9b9b;fill-opacity:.54970757;fill-rule:nonzero;stroke:none;stroke-width:1;stroke-linecap:round;stroke-linejoin:round;stroke-miterlimit:4;stroke-dashoffset:0;stroke-opacity:.08187136;marker:none;marker-start:none;marker-mid:none;marker-end:none" id="rect15686" width="22" height="1" x="15" y="9" rx=".152" ry=".065"/><rect style="color:#000;display:block;overflow:visible;visibility:visible;fill:#9b9b9b;fill-opacity:.54970757;fill-rule:nonzero;stroke:none;stroke-width:1;stroke-linecap:round;stroke-linejoin:round;stroke-miterlimit:4;stroke-dashoffset:0;stroke-opacity:.08187136;marker:none;marker-start:none;marker-mid:none;marker-end:none" id="rect15688" width="22" height="1" x="15" y="11" rx=".152" ry=".065"/><rect style="color:#000;display:block;overflow:visible;visibility:visible;fill:#9b9b9b;fill-opacity:.54970757;fill-rule:nonzero;stroke:none;stroke-width:1;stroke-linecap:round;stroke-linejoin:round;stroke-miterlimit:4;stroke-dashoffset:0;stroke-opacity:.08187136;marker:none;marker-start:none;marker-mid:none;marker-end:none" id="rect15690" width="22" height="1" x="15" y="13" rx=".152" ry=".065"/><rect style="color:#000;display:block;overflow:visible;visibility:visible;fill:#9b9b9b;fill-opacity:.54970757;fill-rule:nonzero;stroke:none;stroke-width:1;stroke-linecap:round;stroke-linejoin:round;stroke-miterlimit:4;stroke-dashoffset:0;stroke-opacity:.08187136;marker:none;marker-start:none;marker-mid:none;marker-end:none" id="rect15692" width="22" height="1" x="15" y="15" rx=".152" ry=".065"/><rect style="color:#000;display:block;overflow:visible;visibility:visible;fill:#9b9b9b;fill-opacity:.54970757;fill-rule:nonzero;stroke:none;stroke-width:1;stroke-linecap:round;stroke-linejoin:round;stroke-miterlimit:4;stroke-dashoffset:0;stroke-opacity:.08187136;marker:none;marker-start:none;marker-mid:none;marker-end:none" id="rect15694" width="22" height="1" x="15" y="17" rx=".152" ry=".065"/><rect style="color:#000;display:block;overflow:visible;visibility:visible;fill:#9b9b9b;fill-opacity:.54970757;fill-rule:nonzero;stroke:none;stroke-width:1;stroke-linecap:round;stroke-linejoin:round;stroke-miterlimit:4;stroke-dashoffset:0;stroke-opacity:.08187136;marker:none;marker-start:none;marker-mid:none;marker-end:none" id="rect15696" width="22" height="1" x="15" y="19" rx=".152" ry=".065"/><rect style="color:#000;display:block;overflow:visible;visibility:visible;fill:#9b9b9b;fill-opacity:.54970757;fill-rule:nonzero;stroke:none;stroke-width:1;stroke-linecap:round;stroke-linejoin:round;stroke-miterlimit:4;stroke-dashoffset:0;stroke-opacity:.08187136;marker:none;marker-start:none;marker-mid:none;marker-end:none" id="rect15698" width="22" height="1" x="15" y="21" rx=".152" ry=".065"/><rect style="color:#000;display:block;overflow:visible;visibility:visible;fill:#9b9b9b;fill-opacity:.54970757;fill-rule:nonzero;stroke:none;stroke-width:1;stroke-linecap:round;stroke-linejoin:round;stroke-miterlimit:4;stroke-dashoffset:0;stroke-opacity:.08187136;marker:none;marker-start:none;marker-mid:none;marker-end:none" id="rect15700" width="22" height="1" x="15" y="23" rx=".152" ry=".065"/><rect style="color:#000;display:block;overflow:visible;visibility:visible;fill:#9b9b9b;fill-opacity:.54970757;fill-rule:nonzero;stroke:none;stroke-width:1;stroke-linecap:round;stroke-linejoin:round;stroke-miterlimit:4;stroke-dashoffset:0;stroke-opacity:.08187136;marker:none;marker-start:none;marker-mid:none;marker-end:none" id="rect15732" width="9.9" height="1" x="15" y="25" rx=".068" ry=".065"/><rect style="color:#000;display:block;overflow:visible;visibility:visible;fill:#9b9b9b;fill-opacity:.54970757;fill-rule:nonzero;stroke:none;stroke-width:1;stroke-linecap:round;stroke-linejoin:round;stroke-miterlimit:4;stroke-dashoffset:0;stroke-opacity:.08187136;marker:none;marker-start:none;marker-mid:none;marker-end:none" id="rect15736" width="22" height="1" x="15" y="29" rx=".152" ry=".065"/><rect style="color:#000;display:block;overflow:visible;visibility:visible;fill:#9b9b9b;fill-opacity:.54970757;fill-rule:nonzero;stroke:none;stroke-width:1;stroke-linecap:round;stroke-linejoin:round;stroke-miterlimit:4;stroke-dashoffset:0;stroke-opacity:.08187136;marker:none;marker-start:none;marker-mid:none;marker-end:none" id="rect15738" width="22" height="1" x="15" y="31" rx=".152" ry=".065"/><rect style="color:#000;display:block;overflow:visible;visibility:visible;fill:#9b9b9b;fill-opacity:.54970757;fill-rule:nonzero;stroke:none;stroke-width:1;stroke-linecap:round;stroke-linejoin:round;stroke-miterlimit:4;stroke-dashoffset:0;stroke-opacity:.08187136;marker:none;marker-start:none;marker-mid:none;marker-end:none" id="rect15740" width="22" height="1" x="15" y="33" rx=".152" ry=".065"/><rect style="color:#000;display:block;overflow:visible;visibility:visible;fill:#9b9b9b;fill-opacity:.54970757;fill-rule:nonzero;stroke:none;stroke-width:1;stroke-linecap:round;stroke-linejoin:round;stroke-miterlimit:4;stroke-dashoffset:0;stroke-opacity:.08187136;marker:none;marker-start:none;marker-mid:none;marker-end:none" id="rect15742" width="22" height="1" x="15" y="35" rx=".152" ry=".065"/><rect style="color:#000;display:block;overflow:visible;visibility:visible;fill:#9b9b9b;fill-opacity:.54970757;fill-rule:nonzero;stroke:none;stroke-width:1;stroke-linecap:round;stroke-linejoin:round;stroke-miterlimit:4;stroke-dashoffset:0;stroke-opacity:.08187136;marker:none;marker-start:none;marker-mid:none;marker-end:none" id="rect15744" width="15.4" height="1" x="15" y="37" rx=".106" ry=".065"/></g><path style="color:#000;display:inline;overflow:visible;visibility:visible;opacity:.40909095;fill:url(#radialGradient2622);fill-opacity:1;fill-rule:nonzero;stroke:none;stroke-width:.9999997;stroke-linecap:butt;stroke-linejoin:miter;stroke-miterlimit:4;stroke-dasharray:none;stroke-dashoffset:0;stroke-opacity:1;marker:none;marker-start:none;marker-mid:none;marker-end:none" id="path2140" d="m 25.245306,12.962673 c -0.276866,0.02281 -0.545962,0.05966 -0.830623,0.117484 l -1.135185,1.086729 3.516304,3.524526 0.193812,3.083961 -2.630306,2.52591 -3.100993,-0.352452 -3.211742,-3.201445 c -10e-7,0 -1.135185,1.174842 -1.135185,1.174842 -0.523415,5.302126 4.706864,10.0449 10.078226,6.872826 l 10.493539,11.395968 0,-9.751189 -5.814362,-6.608486 C 33.553266,17.278382 30.031127,12.56832 25.245306,12.962673 Z"/><g id="g4181" transform="matrix(0.36520316,0,0,0.36271972,24.973893,28.842359)"><path id="path6671" d="m 25.38911,19.305038 c 0,0 -5.904865,8.175967 -5.904865,11.923286 0,3.747318 6.813306,1.703326 9.538628,4.428649 2.725322,2.725322 -6.359086,9.765738 -6.359086,9.765738 l 9.084408,-2.498212 3.633764,3.860873 c 0,-4.655759 5.337089,-8.403077 2.611767,-11.241954 -2.838878,-2.838878 -10.90129,-2.498213 -11.35551,-6.245531 -0.454221,-3.747318 -1.135551,-9.879294 -1.135551,-9.879294 L 25.38911,19.305038 Z" style="color:#000;display:inline;overflow:visible;visibility:visible;opacity:.48044691;fill:url(#radialGradient6675);fill-opacity:1;fill-rule:nonzero;stroke:none;stroke-width:1;stroke-linecap:round;stroke-linejoin:round;stroke-miterlimit:4;stroke-dashoffset:0;stroke-opacity:1;marker:none;marker-start:none;marker-mid:none;marker-end:none"/><path id="path6639" d="m 36.91616,9.3946518 c 1.321528,3.0573762 3.643133,2.9018182 3.700549,6.9825152 0.03274,2.275762 1.832456,3.470743 1.832456,5.795517 0,2.324773 -4.015015,3.473472 -5.382529,4.840984 -1.367515,1.367516 0.107885,4.874427 -3.60203,5.904959 -3.674662,1.02074 -5.470058,-0.410252 -7.794832,-0.410252 -2.324776,0 -7.887818,4.482688 -9.939091,2.431415 -2.051272,-2.051271 -2.095036,-6.533959 -3.872804,-8.311727 -1.9145211,-1.914521 -4.9394355,-4.5894 -4.9394355,-8.008186 0,-3.418785 1.9742054,-5.223586 4.8026845,-8.401985 2.918275,-3.2793047 3.008531,-8.2050874 6.427317,-8.2050874 3.418785,0 4.729182,0.9378099 7.638964,0.864272 4.638337,-0.1172232 5.20674,-2.32332197 8.618072,-0.5935 3.007702,1.5251494 1.476157,4.7176933 2.510679,7.1110752 z" style="opacity:.48044691;fill:url(#radialGradient6663);fill-opacity:1;fill-rule:nonzero;stroke:none;stroke-linecap:round;stroke-linejoin:round;stroke-miterlimit:4;stroke-opacity:1"/><path style="fill:url(#linearGradient6631);fill-opacity:1;fill-rule:nonzero;stroke:#1f254f;stroke-width:1;stroke-miterlimit:6.5999999;stroke-opacity:1" id="path5112" d="m 23.62134,18.067599 c 0,0 -5.904865,8.175967 -5.904865,11.923286 0,3.747318 6.813306,1.703326 9.538628,4.428649 2.725322,2.725322 -6.359086,9.765738 -6.359086,9.765738 l 9.084408,-2.498212 3.633764,3.860873 c 0,-4.655759 5.337089,-8.403077 2.611767,-11.241954 -2.838878,-2.838878 -10.90129,-2.498213 -11.35551,-6.245531 -0.454221,-3.747318 -1.135551,-9.879294 -1.135551,-9.879294 L 23.62134,18.067599 Z"/><path id="path6680" d="m 20.803213,31.602421 c 4.552,0.448384 7.429014,1.235525 7.806622,3.989107 0.330114,2.407239 -4.232143,6.732959 -4.232143,6.732959 l 5.843888,-1.624746 2.84137,2.96095 c 0.662912,-3.71094 4.364808,-6.222004 2.678906,-8.504604 -2.114688,-2.863148 -8.966049,-2.243467 -9.293599,-4.945752 -0.32755,-2.702286 -8.334061,1.124615 -5.645044,1.392086 z" style="fill:none;fill-opacity:1;fill-rule:nonzero;stroke:url(#linearGradient6690);stroke-width:.72112519;stroke-miterlimit:6.5999999;stroke-opacity:1"/><path style="fill:url(#radialGradient5284);fill-rule:nonzero;stroke:#4c0901;stroke-linecap:round;stroke-linejoin:round;stroke-miterlimit:4;stroke-opacity:1" id="path5119" d="m 34.935485,9.2468088 c 1.266321,2.9296542 3.490941,2.7805952 3.545959,6.6908212 0.03138,2.180692 1.755905,3.325753 1.755905,5.553409 0,2.227656 -3.847288,3.328368 -5.157674,4.638753 -1.310387,1.310388 0.103378,4.670798 -3.451556,5.658279 -3.521153,0.978099 -5.241546,-0.393114 -7.469203,-0.393114 -2.227658,0 -7.558305,4.295424 -9.523886,2.329843 -1.96558,-1.965579 -2.007516,-6.261003 -3.711018,-7.964505 -1.8345421,-1.834542 -4.7330913,-4.397678 -4.7330913,-7.673644 0,-3.275966 1.8917331,-5.005371 4.6020533,-8.050993 2.796364,-3.1423108 2.88285,-7.8623191 6.158816,-7.8623191 3.275966,0 4.531621,0.8986329 7.319847,0.828167 4.444571,-0.1123262 4.989229,-2.22626527 8.258052,-0.5687065 2.882056,1.4614363 1.414491,4.5206119 2.405796,6.8140094 z"/><path style="fill:url(#radialGradient6678);fill-rule:nonzero;stroke:none;stroke-miterlimit:4" id="path5126" d="m 34.97685,17.567599 c 0,6.245531 -5.10998,11.35551 -11.35551,11.35551 -6.245531,0 -11.35551,-5.109979 -11.35551,-11.35551 0,-6.24553 5.109979,-11.3555099 11.35551,-11.3555099 6.24553,0 11.35551,5.1099799 11.35551,11.3555099 z"/><path id="path6600" d="m 33.888971,10.030124 c 1.153261,2.668087 3.179261,2.532336 3.229367,6.093447 0.02857,1.985994 1.599132,3.028821 1.599132,5.057586 0,2.028765 -3.503791,3.031202 -4.697182,4.224592 -1.193393,1.193394 0.09415,4.253777 -3.143392,5.153093 -3.206775,0.890771 -4.773567,-0.358015 -6.802333,-0.358015 -2.028766,0 -6.883479,3.911917 -8.673568,2.121828 -1.790087,-1.790087 -1.828279,-5.702004 -3.379688,-7.253413 -1.670749,-1.670749 -4.3105081,-4.005041 -4.3105081,-6.98852 0,-2.983479 1.7228345,-4.558479 4.1911691,-7.332179 2.546698,-2.8617569 2.625462,-7.1603502 5.608941,-7.1603502 2.983479,0 4.127026,0.8184006 6.666312,0.754226 4.047747,-0.1022974 4.543777,-2.0274984 7.52075,-0.5179309 2.624739,1.3309554 1.288202,4.1169996 2.191,6.2056361 z" style="fill:none;fill-rule:nonzero;stroke:url(#linearGradient6610);stroke-linecap:round;stroke-linejoin:round;stroke-miterlimit:4;stroke-opacity:1"/><path style="color:#000;display:inline;overflow:visible;visibility:visible;opacity:1;fill:url(#linearGradient6623);fill-opacity:1;fill-rule:nonzero;stroke:none;stroke-width:1;stroke-linecap:round;stroke-linejoin:round;stroke-miterlimit:4;stroke-dashoffset:0;stroke-opacity:1;marker:none;marker-start:none;marker-mid:none;marker-end:none" id="path6612" d="m 23.66325,7.0524597 c -5.867816,0 -10.646262,4.7422323 -10.646262,10.6100503 0,3.670993 1.983705,6.780628 4.816166,8.690826 C 25.073625,22.456374 23.786958,15.548148 33.44043,13.606789 31.841424,9.7576868 28.088842,7.0524597 23.66325,7.0524597 Z"/></g></g></svg>